<?xml version="1.0" encoding="utf-8"?>
<!-- Generator: Adobe Illustrator 26.0.1, SVG Export Plug-In . SVG Version: 6.00 Build 0)  -->
<svg version="1.1" id="Слой_1" xmlns="http://www.w3.org/2000/svg" xmlns:xlink="http://www.w3.org/1999/xlink" x="0px" y="0px"
	 viewBox="0 0 617 483.7" style="enable-background:new 0 0 617 483.7;" xml:space="preserve">
<style type="text/css">
	.st0{fill:#E0E0E0;}
	.st1{fill:#D9D9D9;}
	.st2{opacity:0.5;}
	.st3{fill:#B8B8B8;}
	.st4{opacity:0.43;}
	.st5{fill:#F79C36;}
	.st6{opacity:0.22;}
	.st7{fill:#2BB24C;}
	.st8{fill:#CCCCCC;}
	.st9{fill:#EEA886;}
	.st10{fill:#D9D3C8;}
	.st11{fill:#A77860;}
	.st12{fill:#C29941;}
	.st13{fill:#20993A;}
	.st14{fill:#FFFFFF;}
	.st15{filter:url(#Adobe_OpacityMaskFilter);}
	.st16{mask:url(#SVGID_1_);fill:#F79C36;}
	.st17{filter:url(#Adobe_OpacityMaskFilter_00000121970962276407112370000008819953442860921228_);}
	.st18{mask:url(#SVGID_00000073683573907919612540000013507756407342024085_);fill:#F79C36;}
	.st19{fill:#383838;}
	.st20{fill:#152B3D;}
	.st21{fill:#FFC05C;}
	.st22{fill:#254380;}
	.st23{fill:#E55353;}
	.st24{fill:#353A3D;}
	.st25{fill:#EEA987;}
	.st26{fill:#2F4563;}
	.st27{fill:#202338;}
	.st28{fill:#2F6B8C;}
	.st29{fill:#F5E1D9;}
	.st30{fill:#4B6F9E;}
	.st31{fill:#EDDAD3;}
	.st32{fill:#C9BAB3;}
	.st33{fill:#1E2C40;}
	.st34{fill:url(#SVGID_00000036215771985056781870000006046675068340114828_);}
	.st35{fill:url(#SVGID_00000151503683911583154910000017901722226199921544_);}
	.st36{fill:url(#SVGID_00000124140251262889150500000009010784245735451579_);}
	.st37{fill:url(#SVGID_00000156589655330660979490000007514055254229813637_);}
	.st38{fill:#2D6CEA;}
	.st39{fill:#81807E;}
	.st40{fill:#292C47;}
	.st41{fill:#CAC7D1;}
	.st42{fill:#1D2033;}
	.st43{fill:#323657;}
	.st44{fill:#C78D71;}
	.st45{fill:#A09EA6;}
	.st46{fill:#EAE6F2;}
	.st47{fill:#3A4066;}
	.st48{fill:#F2DFD8;}
	.st49{fill:#D6C5BE;}
	.st50{fill:url(#SVGID_00000098192126786866971640000010851903741105931426_);}
	.st51{fill:#FFA855;}
	.st52{fill:#FFA555;}
	.st53{fill:#595959;}
	.st54{fill:#858585;}
	.st55{fill:#6D6D6D;}
	.st56{fill:#282828;}
	.st57{fill:#2D2D2D;}
	.st58{fill:#D6C5BF;}
	.st59{fill:#EB4747;}
	.st60{fill:#D69779;}
	.st61{fill:#9E633A;}
	.st62{fill:#82522F;}
	.st63{fill:#C67B47;}
</style>
<g>
	<g>
		<rect x="281.3" y="241.2" class="st0" width="1.4" height="145.2"/>
	</g>
	<g>
		<rect x="379.7" y="241.2" class="st0" width="1.4" height="145.2"/>
	</g>
	<g>
		<rect x="478.1" y="241.2" class="st0" width="1.4" height="145.2"/>
	</g>
	<rect x="183.7" y="223.3" class="st1" width="23.6" height="3.8"/>
	<rect x="183.7" y="230.3" class="st1" width="33.4" height="3.8"/>
	<rect x="281" y="223.3" class="st2" width="27.7" height="3.8"/>
	<rect x="281" y="230.3" class="st2" width="17.7" height="3.8"/>
	<rect x="381.1" y="223.3" class="st2" width="17.1" height="3.8"/>
	<rect x="381.1" y="230.3" class="st2" width="20" height="3.8"/>
	<rect x="479.5" y="223.3" class="st1" width="25" height="3.8"/>
	<rect x="479.5" y="230.3" class="st1" width="20" height="3.8"/>
	<rect x="282" y="395" class="st3" width="15.7" height="5"/>
	<rect x="381.1" y="395" class="st3" width="15.7" height="5"/>
	<rect x="479.5" y="395" class="st3" width="15.7" height="5"/>
	<g class="st4">
		<path class="st5" d="M543.1,343.3c-30.7,0-57.4-13.3-85.2-27.1c-34.3-17.1-69.8-34.7-117.1-29.9c-30.2,3.1-49.2,15.4-65.9,26.2
			c-15.1,9.8-29.5,18.5-48.9,19.2c-31.3,1.2-42.2-12.2-42.4-13v-8.6l0,0l0,0c0,0.1,6.9,15.2,42.4,15c17.5-0.1,30.4-8.5,45.3-18.1
			c17.4-11.3,37-24,68.8-27.3c49.2-5,85.6,13.1,120.7,30.5c36.8,18.3,71.9,35.5,116.3,20.6v7.1C564.5,342.1,554.4,343.3,543.1,343.3
			z"/>
	</g>
	<g class="st6">
		<path class="st7" d="M358.9,341.6c-22.7,0-40.6-15.2-58.2-30.1c-13.3-11.3-27.2-22.9-43.1-28.6c-48.7-17.4-73.7,14.4-73.9,14.7
			v-9.7c0.3-0.3,4.7-6.1,17.6-11.6c11.7-5,31.4-9,58.5,0.4c17.2,6,31.4,18.1,45.2,29.8c28,23.7,52.2,44.2,94.1,12.1
			c31.8-24.3,61.8-47.5,91.2-55.9c28.8-8.3,58.9-2.2,87.1,25.9l-0.2,8.8c-59.8-60-110.7-22-174.1,26.5
			C386.3,336.7,371.8,341.6,358.9,341.6z"/>
	</g>
</g>
<g>
	<polygon class="st7" points="375.5,206.6 374.5,205.4 391.1,191.3 401.2,191.3 424,171.8 438.3,184 448.8,184 454.2,188.5 
		470.7,174.4 479.1,174.4 513.9,144.8 514.9,145.9 479.7,176 471.3,176 454.2,190.5 448.3,185.5 437.7,185.5 424,173.8 401.7,192.8 
		391.7,192.8 	"/>
</g>
<g>
	<polygon class="st5" points="377.9,187.1 372.2,187.1 372.2,185.5 377.3,185.5 385.9,176.9 392.2,183.2 407.1,168.2 411.7,172.8 
		426.8,157.7 435.9,166.8 446.3,166.8 462.2,150.8 476,150.8 486.2,140.6 498.6,140.6 511,128.2 512.1,129.3 499.3,142.1 
		486.8,142.1 476.6,152.3 462.9,152.3 446.9,168.3 435.3,168.3 426.8,159.9 411.7,175 407.1,170.4 392.2,185.3 385.9,179.1 	"/>
</g>
<path class="st8" d="M530.9,190.6C530.9,190.5,530.9,190.5,530.9,190.6c-14.8-51.5-51.5-95.4-102.3-118h0
	c-8.7-3.9-17.8-7.1-27.3-9.7c-23.7-6.4-47.6-7.8-70.6-5c0,0,0,0-0.1,0l0,0c-15.5,1.9-30.5,5.8-44.8,11.4c0,0-0.1,0-0.1,0
	C233.2,90,190.8,134.5,175,193.2c-26.5,98.5,31.8,199.8,130.3,226.3c50.6,13.6,101.9,4.8,143.4-20.2l7.8,10.8l36.5-26.3l-8.8-12.3
	c22-22.1,38.7-50,47.4-82.3C540.6,255.6,539.8,221.7,530.9,190.6z M395.7,359.2c-65.3,23.4-137.2-10.6-160.6-75.8
	c-23-64.1,9.3-134.5,72.2-159.2c1.2-0.5,2.4-0.9,3.6-1.4c8.9-3.2,17.9-5.3,26.9-6.4c23.1-2.9,46.1,0.8,66.6,10
	c30.2,13.5,55,38.7,67,72.3c0.9,2.6,1.8,5.3,2.6,7.9C492.1,269.7,458.3,336.8,395.7,359.2z"/>
<g>
	<path class="st7" d="M567.3,180.1l-36.4,10.4l-56.8,16.2c-0.8-2.7-1.6-5.3-2.6-7.9c-12-33.5-36.8-58.8-67-72.3l24-53.8h0l2.5-5.7
		L444,38C505.2,65.2,549.5,118.2,567.3,180.1z"/>
</g>
<g>
	<path class="st5" d="M431.1,66.9l-2.5,5.7l-24,53.8c-20.5-9.2-43.5-12.9-66.6-10l-7.2-58.5l-0.8-6.1c23.7-2.9,48.4-1.5,73,5.1
		C412.7,59.5,422.1,62.9,431.1,66.9z"/>
</g>
<g>
	<path d="M337.9,116.4c-9,1.1-18,3.2-26.9,6.4c-1.2,0.4-2.4,0.9-3.6,1.4l-21.6-54.9l-6.5-16.6c15.7-6.2,32.2-10.5,49.2-12.6l0,0
		l1.4,11.6l0.8,6.1L337.9,116.4z"/>
</g>
<polygon class="st8" points="573.6,483.7 500.9,483.7 450.3,413.4 498.2,378.9 "/>
<g>
	<g>
		<g>
			<path d="M314,27.4c0,0-2.6-4.8-4.1-6.5c-1.5-1.7-6.4-3-5.8-5.2c0.7-2.2,7.3-1.3,9.1,0.9c1.8,2.2,7.4,2.9,7.6,3.8
				c0.2,0.9-1.9,5.9-3.1,6.7C316.5,28,314,27.4,314,27.4z"/>
			<path d="M302.8,31.5c0,0-4.3-3.4-6.3-4.4s-7.1-0.2-7.4-2.5c-0.3-2.3,6.2-4.1,8.8-2.8c2.5,1.3,8-0.2,8.5,0.5
				c0.5,0.8,0.6,6.2-0.2,7.4S302.8,31.5,302.8,31.5z"/>
			<path class="st9" d="M312.3,40.3c0,0,1.9-12.8,1.8-15c0-0.6,3.8-0.4,3.7,0.8c-0.4,2.6,1.4,12.9,1.1,14.8
				C318.5,42.8,312.1,41.5,312.3,40.3z"/>
			<path class="st9" d="M306.5,44c0,0-3.5-12.4-4.3-14.4c-0.4-0.9,3.2-2.3,3.7-0.7c0.8,2.6,6.4,11.3,6.9,13.1
				C313.1,43.8,306.8,45.1,306.5,44z"/>
			<path class="st10" d="M308.9,52.6c0,0-3.8-12.7-4.3-14l5.9-3.7c0,0,2.7,8.1,3.1,10.1C314,47.1,308.9,52.6,308.9,52.6z"/>
			<path d="M413.6,19.2c0,0-5.7,1.4-8.4,5.8c-2.7,4.3-5.1,9.3-10.2,11.6c-5.1,2.3-5.1,8.1-4.7,9c0.4,0.9,16.1,18.5,19.5,19.2
				c3.4,0.7,9.8,0.2,9.2-4.3c-0.7-4.5-7.4-14.3-3.6-19.2c3.8-4.9,4.7-9.5,4.7-9.5L413.6,19.2z"/>
			<path class="st9" d="M412.7,40.3c0,0-0.2-0.1-0.4-0.1c-0.3,0-0.8,0-1.3,0.2c-0.1,0-0.3,0.1-0.5,0.3c-1.4,0.8-4.6,3-5,3
				c-0.5,0.1-0.1-7.4-0.1-7.4s1.7-3,1.9-5C407.4,29.2,412.7,40.3,412.7,40.3z"/>
			<path class="st10" d="M372.4,48.1c0,0-6.3-4.4-13.6-3c-7.4,1.4-8.2,4.8-10.7,5c-2.5,0.2-11-0.6-17.9,1.5
				c-6.9,2-12.8,2.2-13.6,1.7c-0.8-0.6,4.3-12.1,4.3-13.7l-8.6-2.2c0,0-2.5,10.2-3.4,12.6c-1,2.5-3,7.1-0.2,11.2
				c2.8,4,10.7,2.2,15.4,3c4.8,0.8,26.1,0.3,29.8,0.1c4-0.2,16.2-0.8,16.2-0.8L372.4,48.1z"/>
			<path class="st9" d="M424,25.3c0,0,0.4,6.2-1,8.1c-0.6,0.7-0.9,1.1-1.2,1.4c-0.4,0.3-0.6,0.7-0.8,1.1c-0.4,1.2-0.7,2.9-1,3.2
				c-0.4,0.4-1.4-0.6-1.8-0.6c-0.4,0-4.2,3.3-5.1,2.6c-0.9-0.7-6.4-6.3-6-10.1c0.5-3.8,2.2-9.6,8.4-9.5
				C421.8,21.5,423.5,23.7,424,25.3z"/>
			<path class="st7" d="M405.3,54.9c-0.1,0.3-2.4,3.9-4.9,6c-1,0.9-2.1,1.5-3.1,1.5c-0.3,0-0.6,0-0.9,0c-2.9,0.1-5.1,0.5-8.9,0.7
				c-4,0.2-13.8-0.4-14.1-0.4c-0.3,0-3.1,0.5-3.1,0.5c-1-1.2,1.7-15.1,2.2-15.2c0.5-0.1,3.8,1.2,6.9,0.6c3.1-0.5,4.3-0.8,9-6.2
				c4.6-5.4,9.2-6.8,11.2-6.4c1.9,0.4,5.8,0,5.8,0S405.4,54.5,405.3,54.9z"/>
			<path d="M421.4,29.7c0,0,1.2,3,1.8,3.4c0,0,2.2-2.4,0.8-8.2c-1.4-5.8-6.8-6.4-10.3-5.8c-4.3,0.7-8.7,15.4-8.5,16.9
				c0.2,1.4,5.1-7.6,9.4-6.9C418.8,29.9,418.8,30.1,421.4,29.7z"/>
			<path class="st11" d="M412.2,40.2c-0.3,0-0.8,0-1.3,0.2c-0.1,0-0.3,0.1-0.5,0.2c-1-1.6-1.9-5.2-2-5.4
				C409.1,36.7,412.2,40.2,412.2,40.2z"/>
			<path class="st12" d="M400.4,60.9c-1,0.9-2.1,1.5-3.1,1.5c-0.3,0-0.6,0-0.9,0l1.4-11.5L400.4,60.9z"/>
			<path class="st9" d="M422.8,80.7l-2.8,2.5c-2.4-1.3-8.4-5.6-9.5-6.6c-1.2-1-9.3-7.8-10.4-9.3c-1.1-1.5-2.5-17.4-2.4-18.1
				c0.1-0.7,7-1.1,7.8,0.6c0,0,0.4,9.1,0.5,10.6c0.2,1.5,0.8,2.9,1.8,4.2c1.4,1.8,4.5,5.9,7.5,9.2C416.1,74.5,421.9,79.9,422.8,80.7
				z"/>
			<path class="st13" d="M406.1,50c0,0,0.4-12.1-3.5-11.9c-5,0.2-5.7,6.3-5,12.8C397.6,50.9,405,51,406.1,50z"/>
			<path class="st9" d="M421.5,79.5c0,0,0.4,0.6,0.9,0.8c0.9,0.3,2.3-0.3,3,0.9c0.7,1.2-2.6,4.2-3.5,4.4c-0.9,0.2-2.3-1.2-3.4-3.9
				C417.4,79.1,421.5,79.5,421.5,79.5z"/>
			<path class="st9" d="M425.1,80.8c0,0,1.7,1.3,3.3,2.9c1.5,1.4,3,3.3,2.6,3.6c-0.5,0.5-1.5-1.1-3.1-2.4c-1.4-1.2-1.3-0.7-1.3-0.7
				s0-0.1,1.3,1.5c1.4,1.7,2.8,3.8,2.4,4.1c-0.3,0.2-0.3,0.2-0.9-0.3c0.3,0.4,0.2,0.5,0.1,0.6c-0.8,0.7-3.2-1.6-4.2-2.5
				c0.7,0.7,1.2,1.3,0.5,1.4c-0.9,0.1-4.2-3.2-5.5-4.3C418.8,83.5,425.1,80.8,425.1,80.8z"/>
		</g>
		<path class="st0" d="M375.3,48.7c0,0-1.3,9.5-0.7,14.2c0,0,0.7,0.5,2.1,0.1c0,0,0.3-10.4,1.1-14C377.8,48.9,377.3,48.6,375.3,48.7
			z"/>
	</g>
	<g>
		<line class="st0" x1="375.6" y1="-16.3" x2="376.6" y2="-16.3"/>
		<line class="st0" x1="376.6" y1="55.8" x2="375.6" y2="55.8"/>
	</g>
</g>
<g>
	
		<rect x="535.8" y="357.4" transform="matrix(-1 -1.224647e-16 1.224647e-16 -1 1091.4424 716.2883)" class="st14" width="19.9" height="1.4"/>
	
		<rect x="535.8" y="360.1" transform="matrix(-1 -1.224647e-16 1.224647e-16 -1 1091.4424 725.9997)" class="st14" width="19.9" height="5.9"/>
	
		<rect x="526.5" y="367.9" transform="matrix(-1 -1.224647e-16 1.224647e-16 -1 1064.6315 736.6664)" class="st14" width="11.7" height="0.9"/>
	
		<rect x="526.5" y="369.2" transform="matrix(-1 -1.224647e-16 1.224647e-16 -1 1064.6315 740.6764)" class="st14" width="11.7" height="2.4"/>
	
		<rect x="558.9" y="349.9" transform="matrix(-1 -1.224647e-16 1.224647e-16 -1 1118.7084 716.2885)" class="st14" width="0.9" height="16.4"/>
</g>
<polygon points="19.8,251.1 38.9,251.1 33,239 13.9,239 "/>
<defs>
	<filter id="Adobe_OpacityMaskFilter" filterUnits="userSpaceOnUse" x="13.9" y="239" width="24.9" height="12.1">
		<feFlood  style="flood-color:white;flood-opacity:1" result="back"/>
		<feBlend  in="SourceGraphic" in2="back" mode="normal"/>
	</filter>
</defs>
<mask maskUnits="userSpaceOnUse" x="13.9" y="239" width="24.9" height="12.1" id="SVGID_1_">
	<g class="st15">
	</g>
</mask>
<polygon class="st16" points="19.8,251.1 38.9,251.1 33,239 13.9,239 "/>
<polygon points="10.8,251.1 15.4,251.1 9.5,239 5,239 "/>
<defs>
	
		<filter id="Adobe_OpacityMaskFilter_00000134955754787573256090000001278501222535663260_" filterUnits="userSpaceOnUse" x="5" y="239" width="10.4" height="12.1">
		<feFlood  style="flood-color:white;flood-opacity:1" result="back"/>
		<feBlend  in="SourceGraphic" in2="back" mode="normal"/>
	</filter>
</defs>
<mask maskUnits="userSpaceOnUse" x="5" y="239" width="10.4" height="12.1" id="SVGID_00000088835302652318729230000008683048859256273078_">
	<g style="filter:url(#Adobe_OpacityMaskFilter_00000134955754787573256090000001278501222535663260_);">
	</g>
</mask>
<polygon style="mask:url(#SVGID_00000088835302652318729230000008683048859256273078_);fill:#F79C36;" points="10.8,251.1 
	15.4,251.1 9.5,239 5,239 "/>
<path d="M207.7,210.3h-138c-3.2,0-5.8-2.6-5.8-5.8v-1.5c0-3.2,2.6-5.8,5.8-5.8h138c3.2,0,5.8,2.6,5.8,5.8v1.5
	C213.6,207.7,210.9,210.3,207.7,210.3z"/>
<g>
	<g>
		<polygon class="st19" points="293,390.4 369,390.4 345,464 347.2,464.7 372.2,388 291.2,388 266.5,464 268.8,464.7 		"/>
	</g>
	<g>
		<polygon class="st19" points="318.8,464 294.9,390.4 370.9,390.4 395.1,464.7 397.3,464 372.6,388 291.6,388 316.6,464.7 		"/>
	</g>
	<g>
		<rect x="285.9" y="411.2" class="st19" width="93" height="2.4"/>
	</g>
	<g>
		<rect x="276.3" y="436.8" class="st19" width="111.3" height="2.4"/>
	</g>
</g>
<g>
	<g>
		<g>
			<path class="st9" d="M331,222.5c0,0,1.9-3.3-1.1-12.2c-2.9-8.6-13-7.8-16.2-2.3c-3.2,5.5-2.1,8.9,2.6,15.1
				C321.1,229.4,329.1,225.4,331,222.5z"/>
		</g>
	</g>
	<g>
		<g>
			<path class="st9" d="M307.7,375.4c0,0-0.5,3.6-0.6,4.2c-0.1,0.5-5.5-0.3-5.5-0.3l-0.4-4.3C301.1,374.9,307,374.9,307.7,375.4z"/>
		</g>
	</g>
	<g>
		<g>
			<path class="st20" d="M307.2,379.1c0,0,1.7,2.2,3.4,3.2c1.7,1,4.3,1.3,5.3,2.3c0.7,0.7,2.6,3.8-4.4,3.7c-7-0.1-10.3,0.4-11.1-0.7
				c-0.7-1.2,1.1-8.7,1.1-8.7S303.2,379.4,307.2,379.1z"/>
		</g>
	</g>
	<g>
		<g>
			<path class="st9" d="M345.6,375.4c0,0-0.5,3.6-0.6,4.2c-0.1,0.5-5.5-0.3-5.5-0.3l-0.4-4.3C339,374.9,344.9,374.9,345.6,375.4z"/>
		</g>
	</g>
	<g>
		<g>
			<path class="st20" d="M345.1,379.1c0,0,1.7,2.2,3.4,3.2c1.7,1,7.9,1.7,8.8,2.7c0.7,0.7,1.9,3.6-7.9,3.3c-7-0.2-10.3,0.4-11.1-0.7
				c-0.7-1.2,1.1-8.7,1.1-8.7S341.6,379.3,345.1,379.1z"/>
		</g>
	</g>
	<g>
		<g>
			<path class="st5" d="M309.5,284.5c0,0-2.8,8.7-2.4,16.2c0.4,7.5-1.5,15.7-2.2,23.6c-0.8,8.8-4.2,29.5-4.3,34.2
				c-0.1,4.7,0.5,19.6,0.5,19.6l6.8,0.2c0,0,5.7-36.2,7.2-39.9c1.5-3.7,8.8-30.1,9.1-33C324.4,302.4,309.5,284.5,309.5,284.5z"/>
		</g>
	</g>
	<g>
		<g>
			<path class="st5" d="M337.7,283.6c0,0,4.1,23.1,4.6,27.7c0.5,4.6,0.8,22.3,1.1,25.1c0.2,2.9,1.6,37.6,3,41.9h-7.6
				c0,0-7.8-25.3-7.8-37.2c0-12-5.2-26-8.5-33.9c-3.3-7.9-10.9-8.1-13-22.7C309.5,284.5,334.9,279,337.7,283.6z"/>
		</g>
	</g>
	<g>
		<g>
			<path class="st9" d="M328.3,224.9c0,0-0.9,2.5,0,4.3c0.9,1.8-10.9,0.7-10.9,0.7s0.5-3.7-1-6.7
				C314.8,220.1,328.3,224.9,328.3,224.9z"/>
		</g>
	</g>
	<g>
		<g>
			<path class="st21" d="M309,286.4c0,0,4.2,4.4,29.1-0.7l-0.4-2.1l-28.3,1.1L309,286.4z"/>
		</g>
	</g>
	<g>
		<g>
			<path class="st9" d="M330.1,229.7c0,0,4.4,0.4,5.6,0.7c1.2,0.2,9.6-1.5,11.3-1.7c1.7-0.2,9-5.2,9.3-5.8
				c0.2-0.6,4.5-11.3,4.7-13.6c0.2-2.3,4.1-1.1,3.8,0.5c-0.6,3-1.4,10.2-1.9,12.3c-0.5,2.3-1.7,7.4-2.4,8s-7.3,5.6-13.8,7.8
				c-6.5,2.1-11.3,5.3-11.3,5.3h-31.8c0,0-12.4-17.7-12.6-20.3c-0.3-2.7,8.6-20.4,10.4-22.6c1.8-2.2,4.3,0.7,4.3,0.7
				s-5.3,15.6-6,17.8c-0.7,2.2,6.2,12,8.1,12c1.9,0,6.8-0.6,8.9-0.7c2.2-0.1,4.4-1,4.4-1L330.1,229.7z"/>
		</g>
	</g>
	<g>
		<g>
			<path class="st22" d="M343.8,241.5c0,0-3.9,2.6-4.2,7c-0.4,4.4-1.8,11.5-2.5,13.9c-0.7,2.4,0.6,19.8,0.8,21
				c0.2,1.2-24.6,4.2-28.4,1.2c0,0-1.1-16.3-1.5-20.9c-0.4-4.6-2.6-15.8-3.3-17.3c-0.7-1.5-9.3-13.6-9.7-15.2c0,0,4.5-7.1,7.7-7.2
				c0,0,5.1,6,6.7,6.2c1.7,0.3,11.8-1.6,11.8-1.6c0,0,1.1,1.5,7-0.3c0,0,7,0.8,8.2,0.9c1.4,0.2,11-1.2,11-1.2s3.9,6.5,3.2,9.8
				L343.8,241.5z"/>
		</g>
	</g>
	<g>
		<g>
			<path class="st9" d="M360.7,210.7c0,0,0.9-4.1-0.2-5.3c-0.6-0.7-2-2.5-2.2-2.7c-0.1-0.3-1.7-1.1-1.7-1.6c0-0.4,1.5-0.9,2.8,0.3
				c1.3,1.2,2.1,1.5,2.6,1.3c0.5-0.1,1.3-4.5,1.3-5.6c0.1-1.1,0.5-3.9,1.2-3.7c0.7,0.2,0.6,1.4,0.6,1.4s0.8-2.2,1.3-1.7
				c0.5,0.4,0.5,1.5,0.5,1.5s1-1.2,1.2-0.3s0,1.7,0,1.7s1-0.6,1.1,0.8c0.1,1.4-0.3,5.4-1,6.8c-0.7,1.4-3.4,5.2-3.7,6.7
				C364.4,211.8,360.7,210.7,360.7,210.7z"/>
		</g>
	</g>
	<g>
		<g>
			<path class="st9" d="M304.8,203.5c0,0,3-5,4-5.4c1-0.4,2.4-0.7,3.7-1.6c1.2-0.9,2.9-1.6,2.8-1.9c-0.1-0.3-1.6-0.2-3.1,0.5
				c-1.6,0.7-2.3,0.4-2.4,0c-0.1-0.4,0.8-2.9,1.3-3.5c0.5-0.6,3.8-4,3.3-4.5c-0.6-0.5-2.8,1.4-3.1,1.7c0,0,1.7-3.7,1.1-3.8
				c-0.7-0.2-2,1.1-2,1.1s0.1-3.1-3.2,2c0,0,0.7-1.7-0.3-1.1c-1,0.6-2,3.7-2.4,5.3c-0.3,1.6-1.8,6.7-3.1,7.9
				S304.8,203.5,304.8,203.5z"/>
		</g>
	</g>
	<g>
		<g>
			<path d="M316.4,223.1c0,0,1.6,0.1,4.9-1c3.3-1.1,3.6-6.9,4.3-6.3c1.5,1.4,2.8,0.4,3.4-0.4c0,0-1.6-2.1-0.9-3.2c0.8-1,2-1.8,2-1.8
				s-2.3-11.2-12.9-6.1C304.6,210.4,316.4,223.1,316.4,223.1z"/>
		</g>
	</g>
	<g>
		<g>
			<path class="st22" d="M328.3,229.1l-0.4-1.6c0,0-6.8-0.1-10.5,0.4l-0.4,1.9C317.1,229.8,321.8,232,328.3,229.1z"/>
		</g>
	</g>
	<g>
		<g>
			<path class="st9" d="M326.6,214.5c-0.6-1-2.9-1.7-3.2,1.2c-0.2,2.2,4.1,4.7,4.1,2.6C327.6,216.2,327,215.1,326.6,214.5z"/>
		</g>
	</g>
	<g>
		<g>
			<path class="st23" d="M360.9,209.8c0,0,2.4,0.1,3.6,1.1c0,0,0.1,0.7-0.2,1.2c0,0-2.1-1-3.7-1.2
				C360.6,211,360.6,210.1,360.9,209.8z"/>
		</g>
	</g>
	<g>
		<g>
			<path class="st24" d="M363.8,210.4c0.2,0.5,0,1.2-0.6,1.4c-0.5,0.2-1.2,0-1.4-0.6c-0.2-0.5,0-1.2,0.6-1.4
				C362.9,209.6,363.6,209.9,363.8,210.4z"/>
		</g>
	</g>
</g>
<g>
	<g>
		<path class="st25" d="M556.8,267.4c0,0-2.2,0.3-2.2-0.6c0-0.9,0.2-2.1,0.2-2.1L556.8,267.4z"/>
		<path class="st25" d="M569,257.4l-7.1,5.5c0.9-0.2,2.4-0.4,2.5,0.1c0,0.7-2.7,1.5-3.6,2.1c-0.8,0.6-1.6,1.6-1.9,1.6l-1.6,1.3
			l-2.5-3.4c0,0,4.2-4.7,5.2-5.7c1.6-1.6,8.2-2.6,8.6-2.4C569.2,257,569,257.4,569,257.4z"/>
	</g>
	<g>
		<path class="st26" d="M560.3,268.3l-5.7-4.9l-19.7,19.9c-3.1,2.1,6,9.4,8.6,11c6.6,4.1,14.4,13.6,22.5,7.8
			c8.8-6.3-4-10.7-8.2-10.6c-3.7,0.1-11.7-7.2-11.7-7.2L560.3,268.3z"/>
	</g>
	<g>
		<path class="st27" d="M549.9,446.9c0,0-3.3,3.4-6.6,4.2c-3.3,0.7-5.6,1.6-5.7,3.6c0,2,9.6,3.3,13.4,1.3c5.7-3,6.3-2.1,6.9-3.6
			c0.6-1.5-0.8-5.4-0.7-5.9C557.2,445.9,549.9,446.9,549.9,446.9z"/>
	</g>
	<g>
		<path class="st28" d="M550.2,445.3c0,0-0.4,1.6-0.4,1.6c0.1,0,7.5,0.9,7.3-0.4c-0.2-1-0.4-2.2-0.4-2.2L550.2,445.3z"/>
	</g>
	<g>
		<path class="st27" d="M586.8,447.8c0,0-2.4,3.3-5.6,4.1c-3.2,0.8-5.2,2.2-5.4,4.1c-0.2,1.9,7.5,4.4,12.9,1.1
			c3.5-2.2,4.8-2.1,5.6-3.5c0.7-1.4-0.4-5.3-0.3-5.8C594,447.3,586.8,447.8,586.8,447.8z"/>
	</g>
	<g>
		<path class="st28" d="M586.9,446.2c0,0-0.2,1.6-0.1,1.7c0.1,0,7.1,1.3,7.1,0c0-1-0.4-2.3-0.4-2.3L586.9,446.2z"/>
	</g>
	<g>
		<path d="M557.7,348.6c0,0-3.4,25-4.8,33.4c-1.6,9.9-2.2,18-2.7,23.1c-0.6,6.4-1.3,39.3-1.7,41.2c-0.4,1.9,10,0.9,10,0.9
			s5.5-42.9,7.2-49.7c1.6-6.4,6.2-33.9,7.7-32.1c1.5,1.7,5.9,32.9,7,37.9c1.1,5,4,44.6,4,44.6s9.8,1.6,11.8,0c0,0-1.5-35.3-2.2-44.7
			c-0.3-3.6,2.3-43-3.8-58.9C586.9,336,557.7,348.6,557.7,348.6z"/>
	</g>
	<path class="st5" d="M567.8,288.7c0,0-9.1,1.9-10.2,2.8c-1.2,1-3.2,11-3.4,13.8c-0.1,2.8,1.1,14.4,2.3,18.7c1.2,4.3,1.2,23,0.4,29
		c0,0,17.5,3.6,35.5,1.2c0,0-2.5-18.2-1.7-24.1c0.9-7.6,3.1-25,3.1-25s0-9.8-1.4-11.4c-3-3.4-14.5-5-14.5-5H567.8z"/>
	<path class="st26" d="M581.5,307c0.4,9,3.3,11.2,6.1,10.5c0.9-0.2,1.8-0.7,2.5-1.4c1.2-1,2.1-2.5,2.5-3.9c1.2-5,1.2-18.8-5.1-20.6
		C587.5,291.6,580.6,289.4,581.5,307z"/>
	<path class="st29" d="M554.2,311c0,0,5.1-0.8,5.4,6.5s3.5,21,8.7,26.5l-20.4,0.8c-5.2-5.4-7.7-18.5-8.1-25.9
		c-0.4-6.8-5.4-6.5-5.4-6.5L554.2,311z"/>
	<path class="st26" d="M566.2,294.2c0.1,0.1,0.2,0.2,0.4,0.2c0.5,0.2,1,0.4,1.8,0.5c0.3,0,0.5,0,0.8,0c0.2,0,0.3,0,0.5,0
		c4.8-0.5,9.6-6,9.6-6c-9.7-1.5-13.8,0.3-13.8,0.3S563.9,292.6,566.2,294.2z"/>
	<path class="st9" d="M568.2,260.9c0,0-11.4-2.3-8.5,12c2.9,14.3,5.7,15.3,12.5,12.2c6.8-3.1,6-12.3,6.2-16.8
		S571.9,260.9,568.2,260.9z"/>
	<path class="st9" d="M566.4,290.7c0,0,2.3,1.5,10.8-2.3c0,0-0.9-5.1,0.5-10.6c1.3-5.4-10.5,6.6-10.5,6.6c0.1,0.1,0.2,0.6,0.1,1.4
		c0,0.2,0,0.4-0.1,0.7c-0.1,0.4-0.1,0.8-0.2,1.2c0,0.1-0.1,0.2-0.1,0.4C566.3,289.9,566.4,289.1,566.4,290.7z"/>
	<path d="M578,275.6c0,0-0.6-3.8-2.2-3.9c-1.7-0.1-2.1,2.2-2.1,2.2l-1.3,0.1c0,0,0.5-4.1-1.1-4.7c-1.7-0.7-10.6,1.6-12,0.4
		c-1.3-1.1-0.7-8.6,1.7-9.8c2.4-1.2,8.7-4.3,13.6-1.1c0,0,3.8-0.5,4.4,2.5C579.6,264.4,579,273.3,578,275.6z"/>
	<path class="st9" d="M573.8,270.3c0.3-1.3,3-1.6,3,0.4c0,2.1-1.7,5.5-2.7,5.1C573.1,275.4,573.4,272.2,573.8,270.3z"/>
	<path class="st30" d="M577.1,286.8c0,0-4.5,2.7-8.9,3.3l2.3,3.7l7.4-5.1L577.1,286.8z"/>
	<path class="st30" d="M566.8,288.1c0,0,0.5,1.5,1.5,2l-2.2,3.1l0.1-4.1L566.8,288.1z"/>
	<path class="st14" d="M568.3,290.1l-1.7,2.4c0,0,1.1,1.4,3.5,0.3L568.3,290.1z"/>
	<path class="st14" d="M566.5,294.4c0.5,0.2,1,0.4,1.8,0.5c0.3,0,0.5,0,0.8,0l-0.3-2.3h-1.6C567.3,292.7,566.8,293.3,566.5,294.4z"
		/>
	<path class="st11" d="M566.8,287.9c5.1,0.3,8.3-5,8.4-5.1c-3.2,3.5-8.1,3.7-8.1,3.7C567.1,286.9,566.9,287.5,566.8,287.9z"/>
	<path class="st31" d="M554.2,311c0,0-6.1,0.6-4.8,9l-18,1c0,0-2.5-5.8,3-8.6L554.2,311z"/>
	
		<rect x="533.1" y="316.9" transform="matrix(-0.9986 5.373086e-02 -5.373086e-02 -0.9986 1096.6367 605.0762)" class="st32" width="14.1" height="0.7"/>
	
		<rect x="534.3" y="313.7" transform="matrix(-0.9986 5.371328e-02 -5.371328e-02 -0.9986 1098.8745 598.508)" class="st32" width="14.1" height="0.7"/>
	<g>
		
			<rect x="541.9" y="320.9" transform="matrix(0.9986 -5.371496e-02 5.371496e-02 0.9986 -16.4639 29.9507)" class="st32" width="14.1" height="0.7"/>
		
			<rect x="543.7" y="325.8" transform="matrix(0.9986 -5.373086e-02 5.373086e-02 0.9986 -16.731 30.0617)" class="st32" width="14.1" height="0.7"/>
		
			<rect x="545.4" y="330.8" transform="matrix(0.9986 -5.371505e-02 5.371505e-02 0.9986 -16.9887 30.1547)" class="st32" width="14.1" height="0.7"/>
		
			<rect x="547.2" y="335.7" transform="matrix(0.9986 -5.373086e-02 5.373086e-02 0.9986 -17.2559 30.2658)" class="st32" width="14.1" height="0.7"/>
		
			<rect x="549" y="340.6" transform="matrix(0.9986 -5.371496e-02 5.371496e-02 0.9986 -17.5134 30.3586)" class="st32" width="14.1" height="0.7"/>
	</g>
	<path class="st9" d="M569.9,326.9c0,0-0.8,0.4-1.5,0.2c-1.2-0.3-2.2-1.9-3.7-1.1c-1.5,0.8-0.2,6.4,0.5,7.3c0.8,0.8,3.2,0.3,6.2-1.8
		C574.4,329.3,569.9,326.9,569.9,326.9z"/>
	<path class="st9" d="M565.3,325.8c0,0-2.6,0.2-5.4,0.8c-2.5,0.5-5.5,1.5-5.4,2.1c0.2,1,2.6-0.1,5.1-0.4c2.3-0.3,1.9,0.2,1.9,0.2
		s0.1-0.1-2.4,0.7c-2.6,0.9-5.5,1.9-5.4,2.5c0.1,0.6,0.2,0.7,1.2,0.6c-0.6,0.2-0.6,0.4-0.5,0.7c0.4,1.3,4.5,0.6,6.1,0.3
		c-1.2,0.2-2.1,0.5-1.4,1.2c0.8,0.7,6.6-0.5,8.7-0.8C570,333.1,565.3,325.8,565.3,325.8z"/>
	<path class="st26" d="M585.5,291.8c-1.9,0.6-2.8,3.2-1.7,8.7c1.2,6,2.6,9,3.5,10.4c0.8,1.4,5.2,8.7,4.4,9.8
		c-0.8,1.2-11.3,3.9-12,4.1c-1.4,0.4-11,2.3-11,2.3l2.3,8.2c0,0,29.1-5,30.5-6.4c1.4-1.4,2.2-3.3,0.6-8.3c-1.6-5-4.4-16.8-5-17.7
		C596.5,302,593.8,289,585.5,291.8z"/>
	<path class="st33" d="M584,301.7c0,0,0.7,9.2,3.6,15.8c0.9-0.2,1.8-0.7,2.5-1.4c0,0-3.4-6.1-3.7-6.8
		C586.1,308.6,584.3,303.3,584,301.7z"/>
</g>
<g>
	<g>
		<path class="st7" d="M203.9,324.4H72.8c-4.7,0-8.5-3.8-8.5-8.5v-88.6c0-4.7,3.8-8.5,8.5-8.5h131.1c4.7,0,8.5,3.8,8.5,8.5v88.6
			C212.3,320.6,208.5,324.4,203.9,324.4z"/>
	</g>
	<g>
		<g>
			
				<linearGradient id="SVGID_00000034781675684035987550000017885331645376850099_" gradientUnits="userSpaceOnUse" x1="169.4027" y1="251.4824" x2="174.0306" y2="251.4824">
				<stop  offset="0" style="stop-color:#D5E4FF"/>
				<stop  offset="1" style="stop-color:#EDFFFE"/>
			</linearGradient>
			
				<rect x="169.4" y="238.6" style="fill:url(#SVGID_00000034781675684035987550000017885331645376850099_);" width="4.6" height="25.7"/>
		</g>
		<g>
			
				<linearGradient id="SVGID_00000040558453868017852760000001260915792208974516_" gradientUnits="userSpaceOnUse" x1="177.5279" y1="248.0532" x2="182.1556" y2="248.0532">
				<stop  offset="0" style="stop-color:#D5E4FF"/>
				<stop  offset="1" style="stop-color:#EDFFFE"/>
			</linearGradient>
			
				<rect x="177.5" y="231.8" style="fill:url(#SVGID_00000040558453868017852760000001260915792208974516_);" width="4.6" height="32.6"/>
		</g>
		<g>
			
				<linearGradient id="SVGID_00000074432922699281813950000009923187740692547748_" gradientUnits="userSpaceOnUse" x1="186.0543" y1="249.8471" x2="190.6822" y2="249.8471">
				<stop  offset="0" style="stop-color:#D5E4FF"/>
				<stop  offset="1" style="stop-color:#EDFFFE"/>
			</linearGradient>
			
				<rect x="186.1" y="235.3" style="fill:url(#SVGID_00000074432922699281813950000009923187740692547748_);" width="4.6" height="29"/>
		</g>
		<g>
			
				<linearGradient id="SVGID_00000114790573459666209360000013797723732635028877_" gradientUnits="userSpaceOnUse" x1="194.8148" y1="254.0123" x2="199.4427" y2="254.0123">
				<stop  offset="0" style="stop-color:#D5E4FF"/>
				<stop  offset="1" style="stop-color:#EDFFFE"/>
			</linearGradient>
			
				<rect x="194.8" y="243.7" style="fill:url(#SVGID_00000114790573459666209360000013797723732635028877_);" width="4.6" height="20.7"/>
		</g>
		<g>
			<rect x="169.4" y="248" class="st5" width="4.6" height="16.3"/>
		</g>
		<g>
			<rect x="177.5" y="243.7" class="st5" width="4.6" height="20.7"/>
		</g>
		<g>
			<rect x="186.1" y="246" class="st5" width="4.6" height="18.4"/>
		</g>
		<g>
			<rect x="194.8" y="251.5" class="st5" width="4.6" height="12.9"/>
		</g>
	</g>
	<g>
		<g>
			<path class="st14" d="M196.3,280.5h-23.8c-1,0-1.8-0.8-1.8-1.8V275c0-1,0.8-1.8,1.8-1.8h23.8c1,0,1.8,0.8,1.8,1.8v3.7
				C198.2,279.7,197.4,280.5,196.3,280.5z"/>
		</g>
	</g>
	<g>
		<g>
			<path class="st14" d="M196.3,294.2h-23.8c-1,0-1.8-0.8-1.8-1.8v-3.7c0-1,0.8-1.8,1.8-1.8h23.8c1,0,1.8,0.8,1.8,1.8v3.7
				C198.2,293.4,197.4,294.2,196.3,294.2z"/>
		</g>
	</g>
	<g>
		<g>
			<path class="st14" d="M196.3,307.9h-23.8c-1,0-1.8-0.8-1.8-1.8v-3.7c0-1,0.8-1.8,1.8-1.8h23.8c1,0,1.8,0.8,1.8,1.8v3.7
				C198.2,307.1,197.4,307.9,196.3,307.9z"/>
		</g>
	</g>
	<g>
		<g>
			<g>
				<path class="st5" d="M157.4,256.8c-6.1-17.1-22.5-27.6-39.7-27.1c-4.2,0.1-8.4,0.9-12.5,2.4c-12.5,4.5-21.5,14.5-25.2,26.3
					c-2.6,8.2-2.6,17.2,0.5,25.9c0.3,0.9,0.6,1.7,1,2.5c1.6,3.8,3.8,7.2,6.3,10.2c10.7,12.6,28.4,17.9,44.9,12
					C153.9,301.4,165,278,157.4,256.8z M129.2,299.4c-12.3,4.4-25.6,0.4-33.7-9c-1.9-2.2-3.5-4.8-4.7-7.6c-0.3-0.6-0.5-1.3-0.8-1.9
					c-2.3-6.5-2.3-13.3-0.4-19.4c2.8-8.9,9.5-16.4,18.9-19.7c3.1-1.1,6.3-1.7,9.4-1.8c12.9-0.4,25.2,7.5,29.8,20.3
					C153.4,276.2,145.2,293.7,129.2,299.4z"/>
			</g>
		</g>
		<g>
			<g>
				<path class="st14" d="M89.7,261.4l-9.8-3c3.7-11.8,12.7-21.8,25.2-26.3c4.1-1.5,8.4-2.3,12.5-2.4l0.3,10.2
					c-3.1,0.1-6.3,0.7-9.4,1.8C99.2,245.1,92.4,252.6,89.7,261.4z"/>
			</g>
		</g>
		<g>
			<g>
				<path d="M90.8,282.8l-9.4,4.1c-0.4-0.8-0.7-1.7-1-2.5c-3.1-8.7-3.1-17.8-0.5-25.9l9.8,3c-1.9,6.1-1.9,12.9,0.4,19.4
					C90.3,281.5,90.5,282.2,90.8,282.8z"/>
			</g>
		</g>
		<g>
			<g>
				<path class="st38" d="M87.8,297c-2.6-3-4.7-6.4-6.3-10.2l9.4-4.1c1.2,2.8,2.8,5.4,4.7,7.6L87.8,297z"/>
			</g>
		</g>
	</g>
</g>
<g>
	<path class="st27" d="M199.1,443.9c0,0-1.5,2.8-2.5,3.9c-1,1.1-4.7,3.1-4.7,6.4c0,3.6,6.3,2.6,8.8,2.4c2.5-0.1,2.7-2,3.7-4.1
		c1-2,2.1-1.7,2.3-3.3c0.2-1.6-1-5.4-1-5.4H199.1z"/>
	<g>
		<path class="st39" d="M205.5,442.8c0,0,0.3,1.5,0.2,1.6c-0.1,0-7,1.3-7,0c0-1,0.6-2.2,0.6-2.2L205.5,442.8z"/>
	</g>
	<g>
		<path class="st9" d="M269.4,311.5c0,0,7.3-1.5,7.9-1.2c0.5,0.3,0.6,0.7-0.1,0.9c-0.7,0.2-7,1.7-7,1.7s8.9-0.3,9.4-0.2
			c0.3,0.1,0.4,0.9,0.1,1c-0.4,0.1-9.2,1-9.2,1s8.3-0.3,8.7,0c0.3,0.2,0.3,1-0.4,1.1c-0.6,0.1-8.3,0.8-8.3,0.8s6,0.2,6.2,0.6
			c0.1,0.3,0.2,0.9-1.3,0.8c-1.5-0.1-5.2,0.1-5.2,0.1L269.4,311.5z"/>
	</g>
	<g>
		<path class="st27" d="M236.8,443.4c0,0,3.1,3.4,6.2,4.1c3.1,0.7,5.3,1.6,5.3,3.6c0,2-8.9,3.2-12.5,1.3c-5.3-2.9-5.8-2.1-6.4-3.5
			c-0.6-1.5,0.7-5.4,0.7-5.9C230,442.4,236.8,443.4,236.8,443.4z"/>
	</g>
	<g>
		<path class="st39" d="M236.5,441.7c0,0,0.4,1.6,0.3,1.6c-0.1,0-7,0.9-6.8-0.4c0.2-1,0.4-2.2,0.4-2.2L236.5,441.7z"/>
	</g>
	<g>
		<path class="st40" d="M230.2,346.1c0,0,2.5,24.5,3.8,32.8c1.5,9.8,2.1,17.9,2.5,23c0.5,6.4,0.6,37.7,1,39.6
			c0.4,1.9-8.3,0.5-8.3,0.5s-4.3-41-5.9-47.8c-1.5-6.3-7-33.5-8.4-31.8c-1.4,1.7-3,31.8-4.1,36.7c-1,5-4.1,44-4.1,44
			s-6.9,1.4-8.8-0.2c0,0-0.8-33.6-0.2-43c0.2-3.6-4.2-42.7,1.5-58.5C202.3,333.2,230.2,346.1,230.2,346.1z"/>
	</g>
	<g>
		<path class="st41" d="M187,349.6c0,0,4.2,1.3,6,1c1.8-0.3,0.9-22.2,0.9-26.7c0.1-3.7,2.1-13.4,2.1-13.4s0,0,0,0c0,0,0,0,0,0
			c0,0,0,0,0,0c0.2,0.7,2.9,10.8,3,15.7c0.1,5-0.7,24.3-0.7,24.3l7.5,0.7l21.5,0.5l4.5-0.5c0,0-0.5-8.2-0.7-12.1
			c-0.1-2.5-0.6-6.9-0.5-11.3c0,0-0.1-4.6,0.4-6.5c0-8.7,0.6-17.3,0.6-17.3c0.3-3.9,0.5-7.6,0.6-11.1c-0.9-0.5-2.1-1.1-3-1.5
			c-2.8-1.3-6.8-3.2-9.3-4.3c-1.5-0.7-2.9-1.2-2.9-1.2s-10.1-1-10.9-0.9c-0.3,0-1.5,0.5-3.2,1.1c-3.6,1.4-10.5,4.1-11.6,4.9
			c-1.6,1.2-5,28.6-5.2,30.5C185.9,324.9,187,349.6,187,349.6z"/>
	</g>
	<path class="st42" d="M231.3,347.7c0,0-14.8,1.3-27.7,0v4.3c0,0,19.5,2.8,28.4-0.8L231.3,347.7z"/>
	<g>
		<path class="st43" d="M218.7,286.5c0,0,2.4,5.7,4.2,18.3c0.7,4.9,2,13,2.9,21.4v0c0.7,6.6,2.4,13.3,3,18.3
			c0.6,5.2,2.2,20.6,2.2,20.6l4-2.6c0.6-0.5,1.4-1.2,1.2-2c-1.1-3.6-3.2-15.5-4.5-25.8c0,0,0,0,0,0c-0.1-0.5-0.1-1-0.2-1.5
			c0,0,0-0.1,0-0.1c-0.2-2.1-0.4-4.1-0.6-5.9c-0.1-1.4,0-2.8,0.2-4.1c0.6-9.3,0.8-19.1,0.8-19.1c0.3-4,0.5-7.8,0.6-11.2
			c-0.7-0.5-2.1-1.3-3.1-1.8C229.4,291.1,220.4,287,218.7,286.5z"/>
	</g>
	<path class="st41" d="M217.9,289.4c0,0,0.3,3.9-3,4c-3.3,0.1-5.9-3.1-5.9-3.1l5.4,1.4l3.3-2.8L217.9,289.4z"/>
	<g>
		<g>
			<path class="st9" d="M261.1,314.6c0,0,2.4-0.7,2.7-2.1c0.3-1.2,1.5-2.6,1.8-3.1c0.5-0.6,1.4-2.9,2-2.3c0.7,0.6-1.3,3.9-1.6,4.7
				c-0.3,0.8,3-0.6,3.8-0.3c0.8,0.2,2.3,5.9-0.1,6.6c-2.4,0.7-5.2-0.2-5.6,0c-0.4,0.2-1.7,0.6-1.7,0.6L261.1,314.6z"/>
		</g>
	</g>
	<g>
		<path class="st25" d="M213.5,259.8c0,0,7.5,1.3,6.2,13c-1.3,11.7-7.9,10.7-8.3,10.7c-0.4,0-6.7,0.1-7-14.2
			C204.4,269.3,204.3,258.7,213.5,259.8z"/>
	</g>
	<g>
		<path class="st25" d="M216.8,280.1c0,0,0,4.8,0.2,5.9c0.2,1.1-6,4.4-10.1,0.6c0,0,0.8-5.3,0.6-7.2
			C207.3,277.6,216.8,280.1,216.8,280.1z"/>
	</g>
	<g>
		<path class="st25" d="M219.8,270.1c0,0,0.8-0.9,1.1,0c0.3,0.9-1.1,4.7-1.2,5c0,0-0.2,0.3-0.3,0.2
			C219.1,275.1,219.8,270.1,219.8,270.1z"/>
	</g>
	<g>
		<path class="st25" d="M204.5,269.2c0,0-0.8-0.9-1.1,0c-0.3,0.9,0.9,4.8,1,5.1c0,0,0.3,0.4,0.5,0.2
			C205.1,274.3,204.5,269.2,204.5,269.2z"/>
	</g>
	<g>
		<path d="M220.4,268.5c-0.3,1.6-0.5,2.8-0.5,2.8l-1.1,1.4c0,0,0.1-3.2-0.1-3.6c-0.1-0.2-0.1-0.5-0.2-0.9c-0.1-0.6-0.3-1.3-0.3-1.5
			c-0.1-0.4-6.4-2.2-12,0.4c0,0,0,0.5,0,1c0,0.6-0.1,1.3-0.4,1.4c-0.5,0.2-0.3,3.7-0.3,3.7l-0.9-1c0,0-0.3-1.8-0.5-3.9c0,0,0,0,0,0
			c-0.1-0.5-0.1-1-0.2-1.5c-0.1-2.1,0.1-5.9,2.8-8.2c1.9-0.8,4.8-1.5,9.8,0c0,0,1.2,0.4,1.5,0.7
			C221.1,262.7,220.4,268.5,220.4,268.5z"/>
	</g>
	<path class="st44" d="M208,281.9c0,0,1.2,1.7,4,1.6c2.8-0.1,4-1.5,4-1.5s-1.3,2.8-4,2.7C209.3,284.7,208,281.9,208,281.9z"/>
	<path class="st45" d="M217.3,289.7l-2.8,2.1c0,0,2.4-5,2.4-7L217.3,289.7z"/>
	<polygon class="st46" points="216.9,284.8 218.8,286.5 220.8,292.5 217.3,289.7 	"/>
	<g>
		<path class="st43" d="M264.3,320.2c0,0-16.5,4.4-20.6,3.4c-1.9-0.5-4.3-3-6.7-6.1c-0.8-1-1.5-2-2.2-3.1c0,0,0,0,0,0
			c-2.9-4.1-5.1-8.1-5.1-8.1s-8.5-9.9-1.7-14.4c0,0,2.9-0.3,4.5,0.9c1.5,1.1,5.2,8.1,5.8,9.4c0.6,1.3,7,13.3,7.5,13.6
			c0.4,0.3,6-0.7,8.9-1c4.8-0.4,8.7-1.6,8.7-1.6L264.3,320.2z"/>
	</g>
	<path class="st25" d="M216.5,286.5c0,0-0.8,2.7-2,5.2c0,0-2.9-2.6-3.9-3.5C209.7,287.3,216.5,286.5,216.5,286.5z"/>
	<path class="st45" d="M211.4,288.9l3.1,2.9c0,0-3.6-0.2-4.3-0.8L211.4,288.9z"/>
	<path class="st46" d="M207.3,283.6c0,0,2.5,4,4.1,5.3l-2.7,4.5l-4.4-7.9L207.3,283.6z"/>
	<g>
		<path class="st43" d="M194.3,324.1c-0.3,4.2,1.5,27.5-0.3,27.9c-1.8,0.3-8.3-1.1-8.3-1.1s-0.8-25.2-0.6-27.8
			c0.2-1.9,3.2-30.7,4.9-31.9c0.9-0.7,7.8-3.1,11.2-4.5c0.6-0.2,2.6-1.1,3.1-1.3c0.7,0.8,7,15.5,7.6,26.9c0.2,3.5-0.6,10.9-1.3,16.9
			c-0.7,6.4-1.4,11.4-1.9,16.8c-1.1,10.6-1.8,19-1.8,19l-10.5-4.7c-1.7-0.9-4.1-4.3-3.4-6.1c2.4-6.8,5.5-18.5,5.5-24.4
			c0,0-1.2-14.6-2.1-17.9C196.3,311.9,194.7,318.7,194.3,324.1z"/>
	</g>
	<rect x="213.8" y="348" class="st47" width="7" height="5.2"/>
	<g>
		<polygon class="st31" points="198.2,375.4 175.2,375.4 180.6,360.1 203.6,360.1 		"/>
		<polygon class="st48" points="198.2,375.4 175.2,375.4 180.6,360.1 203.6,360.1 		"/>
		<polygon class="st49" points="180.6,390.6 203.6,390.6 198.2,375.4 175.2,375.4 		"/>
		<polygon class="st48" points="198.2,405.9 175.2,405.9 180.6,390.6 203.6,390.6 		"/>
		<polygon class="st49" points="180.6,421.2 203.6,421.2 198.2,405.9 175.2,405.9 		"/>
		<rect x="182" y="362.6" class="st32" width="13.1" height="0.6"/>
		<rect x="181.2" y="364.7" class="st32" width="13.1" height="0.6"/>
		<rect x="180.3" y="366.7" class="st32" width="10.6" height="0.6"/>
		<rect x="182" y="393.1" class="st32" width="13.1" height="0.6"/>
		<rect x="181.2" y="395.1" class="st32" width="6.5" height="0.6"/>
	</g>
	<path class="st9" d="M192.7,352.2c0,0,0.1,0.4,0.3,1c0.4,1.1,1.6,2.4,0.8,4c-0.7,1.5-6.3,0.6-7.1-0.1c-0.8-0.7-0.5-3.1,1.4-6.1
		C190.1,347.9,192.7,352.2,192.7,352.2z"/>
	<path class="st9" d="M194,356.7c0,0-0.1,2.5-0.5,5.4c-0.4,2.5-1.1,5.5-1.8,5.4c-0.9-0.1,0-2.5,0.2-5c0.2-2.3-0.2-1.9-0.2-1.9
		s0.1-0.1-0.6,2.3c-0.7,2.6-1.6,5.4-2.1,5.4c-0.6-0.1-0.7-0.1-0.6-1.1c-0.2,0.6-0.4,0.6-0.6,0.5c-1.3-0.3-0.8-4.3-0.6-5.9
		c-0.1,1.2-0.4,2.1-1.1,1.4c-0.8-0.8,0.2-6.4,0.3-8.5C186.6,352.4,194,356.7,194,356.7z"/>
	<g>
		<path class="st43" d="M194.6,335.9l-0.1,18.5c0,0-3.7-0.2-8.8-2l-0.4-26.1L194.6,335.9z"/>
	</g>
</g>
<g>
	<g>
		<g>
			<path d="M164.9,327.3l-12.9,29l-0.3,0.8c-0.7,0.1-1.2-0.1-1.4-0.1l0.3-0.6l12.7-28.7l-18.6-20l-2.8-0.6l0.3-1.3l3.2,0.7
				L164.9,327.3z"/>
		</g>
		
			<linearGradient id="SVGID_00000178925274232438009940000006560206936453290923_" gradientUnits="userSpaceOnUse" x1="-10354.0605" y1="359.3661" x2="-10342.1328" y2="359.3661" gradientTransform="matrix(-1 0 0 1 -10197.0439 0)">
			<stop  offset="0" style="stop-color:#FF9F55"/>
			<stop  offset="1" style="stop-color:#FFD255"/>
		</linearGradient>
		<path style="fill:url(#SVGID_00000178925274232438009940000006560206936453290923_);" d="M145.1,361.9H157c0,0,0-0.3-0.1-0.7
			c-0.4-1.4-1.7-4.4-6.3-4.4c-4.6,0-5.4,3-5.5,4.4C145.1,361.6,145.1,361.9,145.1,361.9z"/>
		<path d="M133,301.2l0.8,2.3l4.9,13.8c2-0.7,3.5-2.1,4.5-3.7c1.2-2.1,1.5-4.7,0.7-7.1C142.3,302,137.4,299.6,133,301.2z"/>
		<path class="st51" d="M152.4,356.3v0.6c-0.2,0.1-0.4,0.1-0.6,0.1c-0.7,0.1-1.2-0.1-1.4-0.1c-0.1,0-0.1,0-0.1,0v-0.6l0.4,0l1.5,0
			L152.4,356.3z"/>
		<path class="st52" d="M145.1,361.9H157c0,0,0-0.3-0.1-0.7h-11.8C145.1,361.6,145.1,361.9,145.1,361.9z"/>
		<path class="st53" d="M133,301.2l0.8,2.3c2.8,2.2,7.3,6.1,9.4,10.1c1.2-2.1,1.5-4.7,0.7-7.1C142.3,302,137.4,299.6,133,301.2z"/>
	</g>
	<g>
		<g>
			<g>
				<g>
					<path class="st9" d="M92.8,325.7c0,0,2.1-2.6,2.4-3c0.3-0.4,1.6-0.8,3.1-1c1.5-0.3,3.6,0.1,3.8,0.3c0.2,0.2,0.4,0.3,0.5,1.1
						c0.1,0.7-0.2,1.4-0.2,1.4s0.5,0.8,0,1.6c0,0,0.4,0.8-0.2,1.6c0,0,0.4,0.8-0.1,1.4c0,0-1.3,0.4-1.7,0.7c-0.4,0.3-3.2,0.9-5.8,1
						C94.5,330.7,92,329.8,92.8,325.7z"/>
				</g>
			</g>
		</g>
	</g>
	<g>
		<g>
			<polygon class="st54" points="32.9,406.7 21.1,456 18.5,456 28.5,406.6 			"/>
		</g>
	</g>
	<g>
		<g>
			<polygon class="st54" points="45.8,406.7 34,456 31.4,456 41.4,406.6 			"/>
		</g>
	</g>
	<g>
		<g>
			<polygon class="st54" points="66.7,406.7 78.5,456 81.1,456 71.1,406.6 			"/>
		</g>
	</g>
	<g>
		<g>
			<path class="st55" d="M77.9,407.2h-51c0,0-3.5-0.1-5.9-10.6c-2.7-11.8-8.1-51.3-8.1-51.3s1.4-3.7,23.8-3.2l40.1,52
				C76.8,394.1,78.2,402.3,77.9,407.2z"/>
		</g>
	</g>
	<g>
		<g>
			<path class="st9" d="M79.4,357.9c0,0,2.6-1.1,4.5-0.7c1.9,0.5,6.5,2.2,8.8,2.4c2.3,0.3,4.4,1.6,4.4,2.3c0,0.7-17.4,1.4-17.5-0.3
				C79.5,359.9,79.4,357.9,79.4,357.9z"/>
		</g>
	</g>
	<g>
		<g>
			<g>
				<g>
					<path class="st9" d="M92.8,325.7c0,0-3.4,2.2-3.5,2.9c-0.1,1.1,0.6,4.6,0.7,4.6c0.1,0,5.1-2.5,5.1-2.5L92.8,325.7z"/>
				</g>
			</g>
		</g>
	</g>
	<g>
		<g>
			<g>
				<path d="M92.7,447.6c0,0,4.4,2.6,6.3,3.6c2,1,9.7,1.3,10.4,2c0.8,0.7,0.5,3-0.8,3.3c-1.3,0.2-10.6,1.1-13.7,0.3
					c-3.1-0.7-9,0.5-10.2,0c-1.3-0.4-0.4-7.4,0.1-9C85.3,446.2,92.7,447.6,92.7,447.6z"/>
			</g>
		</g>
	</g>
	<g>
		<g>
			<g>
				<path class="st55" d="M92.6,444.6l0.1,2.9c0,0-5.8,1.1-8,0.2l0.1-3.2L92.6,444.6z"/>
			</g>
		</g>
	</g>
	<g>
		<g>
			<g>
				<path d="M102.9,447.6c0,0,4.4,2.6,6.3,3.6c2,1,9.7,1.3,10.4,2c0.8,0.7,0.5,3-0.8,3.3c-1.3,0.2-10.6,1.1-13.7,0.3
					c-3.1-0.7-9,0.5-10.2,0c-1.3-0.4-0.4-7.4,0.1-9C95.5,446.2,102.9,447.6,102.9,447.6z"/>
			</g>
		</g>
	</g>
	<g>
		<g>
			<g>
				<path class="st55" d="M102.9,444.6l0.1,2.9c0,0-5.8,1.1-8,0.2l0.1-3.2L102.9,444.6z"/>
			</g>
		</g>
	</g>
	<g>
		<g>
			<polygon points="68.5,376 61.9,374.9 66.3,363.7 			"/>
		</g>
	</g>
	<g>
		<g>
			<path d="M48.6,378.3c0,0,33.4,7.1,38.6,9.3c5.2,2.2,8.3,3.1,8.7,4.2c0.4,1.1,8.5,54,8.5,54H93.4c0,0-8.6-40-9.6-42.5
				c-1-2.5-42.3-2.6-45.3-5.6c-3-3-5.6-11.2-2.3-18.6C39.3,371.9,48.6,378.3,48.6,378.3z"/>
		</g>
	</g>
	<g>
		<g>
			<path class="st56" d="M65.5,374.6c0,0,38.3,10.8,41.4,15.7c3.2,5-12.8,55.6-12.8,55.6H83.2c0,0,10.5-47.4,9.2-49.5
				c-1.3-2.1-59-0.1-48.3-17.1C55,362.2,65.5,374.6,65.5,374.6z"/>
		</g>
	</g>
	<g>
		<g>
			<path class="st19" d="M61.5,321.4c1.4-0.7,6.2,0.9,7.7,3.1c3.3,5.1,9.5,11.5,9.5,11.5l13.9-11.7l2.8,7l-16.5,13.9
				c-1.4,1.2-3.5,1.1-4.8-0.2c-4.3-4.2-13.3-13.1-13.9-15.3C59.3,326.8,58.8,322.8,61.5,321.4z"/>
		</g>
	</g>
	<g>
		<g>
			<path class="st25" d="M56.8,291.6c0,0,6.6,1.1,6.7,12.4c0.1,11.3-4.2,12.3-10.7,10.7c-3.9-1-7.6-6.5-6.1-16.2
				C48.2,288.8,56.8,291.6,56.8,291.6z"/>
		</g>
	</g>
	<g>
		<g>
			<path class="st31" d="M57.7,318.5c0,0,9.2,3.3,10.5,5.4c1.4,2.1,0.5,20.8-0.3,27.5c-0.8,6.7-2.9,21.2-2.4,23.1l-21.3,4.7
				c0,0-6.8-24.9-7-28.8c-0.2-4-5.2-22.5-2.8-24c2.4-1.5,12.9-7.4,12.9-7.4L57.7,318.5z"/>
		</g>
	</g>
	<g>
		<g>
			<polygon points="44.2,379.3 43.2,375.4 65.6,371.1 65.5,374.6 			"/>
		</g>
	</g>
	<g>
		<g>
			<polygon class="st57" points="55.4,372.9 60.7,371.8 60.7,376 55.4,377.2 			"/>
		</g>
	</g>
	<g>
		<g>
			<path class="st57" d="M53,361.9c-0.1,1.1-0.1,2.2-0.2,3.3l0,0c-0.8,12.4-1.9,25.3-1.9,25.3c-1.6,1.3-21.3-3.3-21.3-3.3
				s2.4-3.3,4.8-12.4c2.4-9.1,0.5-17.9-1.9-32.7C30,327.3,32,327.4,32,327.4l15.2-8.3c1,3.8,5,17.6,6,25.5
				C53.6,347.5,53.4,354.3,53,361.9z"/>
		</g>
	</g>
	<g>
		<g>
			<path class="st57" d="M57.8,318.6c0,0,4.4,11.5,6.3,23.2c1.9,11.9,1.8,33.5,3.9,34c2.1,0.5,1.4,0.2,1.4,0.2s-0.4-13-0.6-17.4
				c-0.4-9.6,1.4-31.4,0.5-33.6C68.6,322.8,62.7,319.4,57.8,318.6z"/>
		</g>
	</g>
	<g>
		<g>
			<path class="st25" d="M57.5,316.8c0,0.7,0.1,1.3,0.2,1.8c0,0-1.2,4.6-10.4,0.6c0,0,1.8-6.8,0-12.5l10.4,6.5c0,0-0.1,1-0.2,2.2
				C57.5,315.8,57.5,316.3,57.5,316.8z"/>
		</g>
	</g>
	<g>
		<g>
			<path class="st58" d="M47.7,317.3c0,0,3.6,1.8,7.3,2.1l-1.8,3.8l-5.9-4.1L47.7,317.3z"/>
		</g>
	</g>
	<g>
		<g>
			<path class="st58" d="M55,319.4c0,0,2.6-0.8,2.5-2.1l0.3,1.3l-1,4L55,319.4z"/>
		</g>
	</g>
	<g>
		<g>
			<path d="M62.7,298.2c0,0,1.9-4,0.5-6.9c-1.3-2.9-4.9-1.7-6.5-1.4c-1.6,0.3-4.6-3.2-10,1.1c-5.4,4.3-3.8,8.9-1.4,14.3
				c2.4,5.4,2.7,5.8,2.7,5.8s0-5.5,0.7-6.5c0.8-1.1,3.6-1.7,3.6-1.7s-2.1-2.9,0-4C54.3,297.9,58.6,299.9,62.7,298.2z"/>
		</g>
	</g>
	<g>
		<g>
			<path class="st25" d="M49.5,301.8c-0.3-0.8-1.7-1.8-2.4-0.2c-0.7,1.6,1.1,4.3,2.1,4.3C50.3,305.9,50.2,303.7,49.5,301.8z"/>
		</g>
	</g>
	<g>
		<g>
			<path class="st5" d="M55,319.4l1.3,2.3c0,0-0.6,0.7-2.6,0.4L55,319.4z"/>
		</g>
	</g>
	<g>
		<g>
			<path class="st5" d="M56,321.9c0,0,5.5,16.1,5.5,27.5c0,11.4-0.9,18.2-0.9,18.2l-1.2,2.2l-1.8-2.1c0,0,1.2-33.2-3.6-45.7
				C54.1,322.1,55.8,321.3,56,321.9z"/>
		</g>
	</g>
	<g>
		<g>
			<path class="st19" d="M33.7,326.5c4-1.6,8.1,3.9,10.4,9.4c2.2,5.5,6.4,15.6,6.4,15.6l29.6,4.8l0.4,5.6H46
				c0,0-13.1-23.5-14.1-26.5C31.1,332.5,30.9,327.6,33.7,326.5z"/>
		</g>
	</g>
	<g>
		<g>
			<rect x="70" y="361.9" class="st57" width="97.5" height="3.4"/>
		</g>
	</g>
	<rect x="127.2" y="303.2" class="st57" width="2.3" height="52"/>
	<g>
		<path d="M132.9,361.9h17.6v-1.1h-17.6c-0.9,0-1.6-0.2-2-0.6c-0.5-0.5-0.4-1.2-0.4-1.2l0,0l0,0v-22.7h-1.1v22.7
			c0,0.2-0.1,1.2,0.6,2C130.8,361.6,131.7,361.9,132.9,361.9z"/>
	</g>
	<path d="M109.5,360.1h18.1v1.9h-19.8v-0.2C107.8,360.8,108.5,360.1,109.5,360.1z"/>
	<g>
		<g>
			
				<rect x="157.4" y="365.3" transform="matrix(-1 -1.224647e-16 1.224647e-16 -1 317.5842 821.8307)" class="st57" width="2.8" height="91.2"/>
		</g>
		<g>
			
				<rect x="77.4" y="365.3" transform="matrix(-1 -1.224647e-16 1.224647e-16 -1 157.5954 821.8307)" class="st57" width="2.8" height="91.2"/>
		</g>
	</g>
	<path d="M53,361.9c-0.1,1.1-0.1,2.2-0.2,3.3l0,0c0,0-3.8,0.5-7.1-1c-3.2-1.5-5.5-12.6-5.6-13.2c0.3,0.6,5.5,10.8,6.8,10.8
		C48.2,361.9,53,361.9,53,361.9z"/>
	<path class="st11" d="M57.5,315.3c0,0.5,0,1,0,1.5c-7.3,0.1-7.5-4.1-7.5-4.1C51.2,315.7,57.5,315.3,57.5,315.3z"/>
	<g>
		
			<rect x="95.9" y="321" transform="matrix(0.7195 -0.6945 0.6945 0.7195 -194.7872 160.6333)" class="st59" width="11.2" height="0.9"/>
		<polygon class="st9" points="105.2,317.2 106.7,316.4 105.8,317.9 		"/>
	</g>
	<g>
		<g>
			<g>
				<g>
					<path class="st60" d="M101.7,322c0,0-3.8,0.8-3.8,1.5c0,0.7,0.4,0.9,0.4,0.9l-1.5,1.1c0,0-0.6,1.3,0.8,1.6c0,0-0.7,1.2,0.8,1.3
						c0,0-0.1,1,0.5,1.2c0.7,0.2,3.1-0.5,3.1-0.5s0.6-0.4,0.2-1.4c0,0,0.6-0.8,0.2-1.6c0,0,0.4-0.7,0-1.7c0,0,0.8-1.6-0.4-2.5
						C102.1,321.9,101.9,321.9,101.7,322z"/>
				</g>
			</g>
		</g>
	</g>
	<g>
		<g>
			<g>
				<g>
					<path class="st9" d="M95.3,322.6c0,0,2.5,0.8,3.7,1.9c0.3,0.3,0.5,0.5,0.4,0.9c-0.1,0.4-0.8,0.7-1.9,0.4
						c-1.1-0.3-2.7-0.1-2.7-0.1S93.7,325.1,95.3,322.6z"/>
				</g>
			</g>
		</g>
	</g>
	<path d="M98.5,407.6c0,0-2.3-14.6-2.5-15.2c-0.1-0.6-2.5-2.7-13.9-6.4c0,0,12.7,2.5,16,4.6C100.7,392.3,98.5,407.6,98.5,407.6z"/>
	<g>
		<path class="st61" d="M146.1,361.9c1.2-0.5,3.3-6.4,4.2-9.5c0.3-1.1,0.6-1.8,0.6-1.8h-11.4c1,7.1,3.4,11.3,3.4,11.3H146.1z"/>
		<path class="st7" d="M147.1,347.1c0-0.4,1.8-2.1,2.8-3.3c0.9-1.1-0.4-3.2-0.4-3.2c-4.1,1.7-3.4,6.5-3.4,6.5
			S147.1,347.5,147.1,347.1z"/>
		<path class="st7" d="M144.7,347.3h0.5c0,0,0.4-8.3-2.7-9.4c-3-1.1-3-3.4-3-3.4s-0.9,3.1,0.6,4.7c1.5,1.6,3.2,3.5,2.9,5.1
			C142.7,345.9,144.7,347.3,144.7,347.3z"/>
		<path class="st62" d="M150.4,352.5c0.3-1.1,0.6-1.8,0.6-1.8h-11.4c1,7.1,3.4,11.3,3.4,11.3h0.7
			C143.5,355.3,147.9,353.2,150.4,352.5z"/>
		<polygon class="st63" points="150.9,347.1 139.4,347.1 138.8,350.6 151.4,350.6 		"/>
	</g>
</g>
</svg>
